<svg width="39" height="39" viewBox="0 0 39 39" fill="none" xmlns="http://www.w3.org/2000/svg">
<path fill-rule="evenodd" clip-rule="evenodd" d="M30.875 35.75C32.6625 35.75 34.125 34.2875 34.125 32.5V9.75C34.125 7.9625 32.6625 6.5 30.875 6.5H29.25V3.25H26V6.5H13V3.25H9.75V6.5H8.125C6.32125 6.5 4.89125 7.9625 4.89125 9.75L4.875 32.5C4.875 34.2875 6.32125 35.75 8.125 35.75H30.875ZM14.625 21.125V17.875H11.375V21.125H14.625ZM8.125 13H30.875V9.75H8.125V13ZM30.875 16.25V32.5H8.125V16.25H30.875ZM27.625 21.125V17.875H24.375V21.125H27.625ZM21.125 21.125H17.875V17.875H21.125V21.125Z" fill="#F2CC8F"/>
</svg>
