<svg width="39" height="39" viewBox="0 0 39 39" fill="none" xmlns="http://www.w3.org/2000/svg">
<path fill-rule="evenodd" clip-rule="evenodd" d="M19.5 3.25C10.53 3.25 3.25 10.53 3.25 19.5C3.25 28.47 10.53 35.75 19.5 35.75C28.47 35.75 35.75 28.47 35.75 19.5C35.75 10.53 28.47 3.25 19.5 3.25ZM19.5 32.5C12.3337 32.5 6.5 26.6663 6.5 19.5C6.5 12.3337 12.3337 6.5 19.5 6.5C26.6663 6.5 32.5 12.3337 32.5 19.5C32.5 26.6663 26.6663 32.5 19.5 32.5ZM16.25 23.0262L26.9587 12.3175L29.25 14.625L16.25 27.625L9.75 21.125L12.0413 18.8337L16.25 23.0262Z" fill="#81B29A"/>
</svg>
