<svg width="39" height="39" viewBox="0 0 39 39" fill="none" xmlns="http://www.w3.org/2000/svg">
<path fill-rule="evenodd" clip-rule="evenodd" d="M1.625 14.253L4.875 17.503C9.555 12.823 15.9087 10.873 21.9862 11.6205L23.92 7.2655C16.0713 5.868 7.7025 8.19175 1.625 14.253ZM25.8375 7.753C25.5612 7.753 25.3175 7.89925 25.1712 8.12675L25.0575 8.3705L16.64 27.3017C16.38 27.773 16.2175 28.293 16.2175 28.8617C16.2175 30.6655 17.68 32.128 19.4837 32.128C21.0437 32.128 22.36 31.023 22.6687 29.5442L22.685 29.4955L26.65 8.5655C26.65 8.1105 26.2925 7.753 25.8375 7.753ZM37.375 14.253L34.125 17.503C32.1425 15.5205 29.8675 14.0418 27.43 13.0343L28.2913 8.45175C31.6063 9.6705 34.71 11.588 37.375 14.253ZM27.625 24.003L30.875 20.753C29.575 19.453 28.1125 18.4455 26.5525 17.6817L25.6588 22.4267C26.3413 22.8655 27.0075 23.3855 27.625 24.003ZM11.375 24.003L8.125 20.753C11.3912 17.4867 15.73 15.943 20.0037 16.073L17.9237 20.753C15.535 21.0942 13.2113 22.1667 11.375 24.003Z" fill="#3D405B"/>
</svg>
